<svg xmlns="http://www.w3.org/2000/svg" xmlns:xlink="http://www.w3.org/1999/xlink" width="500" zoomAndPan="magnify" viewBox="0 0 375 135.000003" height="180" preserveAspectRatio="xMidYMid meet" version="1.0"><defs><g/><clipPath id="3f68098e37"><path d="M 1.394531 0 L 373.605469 0 L 373.605469 134.007812 L 1.394531 134.007812 Z M 1.394531 0 " clip-rule="nonzero"/></clipPath><clipPath id="10daf23c27"><path d="M 14.527344 12.597656 L 198.789062 12.597656 L 198.789062 120.546875 L 14.527344 120.546875 Z M 14.527344 12.597656 " clip-rule="nonzero"/></clipPath></defs><g clip-path="url(#3f68098e37)"><path stroke-linecap="butt" transform="matrix(1.861213, 0, 0, 1.860809, 1.394606, 0.00000694853)" fill="none" stroke-linejoin="miter" d="M -0.0000400215 -0.00000373414 L 199.982927 -0.00000373414 L 199.982927 72.015875 L -0.0000400215 72.015875 L -0.0000400215 -0.00000373414 " stroke="#5271ff" stroke-width="2.4" stroke-opacity="1" stroke-miterlimit="4"/></g><g clip-path="url(#10daf23c27)"><path fill="#5271ff" d="M 14.527344 12.601562 L 198.789062 12.601562 L 198.789062 120.542969 L 14.527344 120.542969 L 14.527344 12.601562 " fill-opacity="1" fill-rule="nonzero"/></g><g fill="#ffffff" fill-opacity="1"><g transform="translate(24.817505, 85.378433)"><g><path d="M 5.328125 0 L 9.925781 0 L 9.925781 -12.015625 L 17.710938 -12.015625 C 25.964844 -12.015625 31.292969 -16.769531 31.292969 -24.292969 C 31.292969 -31.761719 25.964844 -36.570312 17.710938 -36.570312 L 5.328125 -36.570312 Z M 9.925781 -16.300781 L 9.925781 -32.179688 L 17.605469 -32.179688 C 23.507812 -32.179688 26.589844 -29.464844 26.589844 -24.238281 C 26.589844 -19.015625 23.507812 -16.300781 17.605469 -16.300781 Z M 9.925781 -16.300781 "/></g></g></g><g fill="#ffffff" fill-opacity="1"><g transform="translate(62.159133, 85.378433)"><g><path d="M 5.328125 0 L 9.925781 0 L 9.925781 -13.113281 L 17.972656 -13.113281 L 26.902344 0 L 32.441406 0 L 23.246094 -13.582031 C 28.574219 -14.890625 31.867188 -18.910156 31.867188 -24.816406 C 31.867188 -32.074219 26.851562 -36.570312 19.277344 -36.570312 L 5.328125 -36.570312 Z M 9.925781 -17.5 L 9.925781 -32.179688 L 18.753906 -32.179688 C 24.082031 -32.179688 27.164062 -29.464844 27.164062 -24.816406 C 27.164062 -20.164062 24.082031 -17.5 18.753906 -17.5 Z M 9.925781 -17.5 "/></g></g></g><g fill="#ffffff" fill-opacity="1"><g transform="translate(101.694159, 85.378433)"><g><path d="M 21.941406 0.679688 C 33.070312 0.679688 40.90625 -7.15625 40.90625 -18.285156 C 40.90625 -29.410156 33.070312 -37.25 21.941406 -37.25 C 10.8125 -37.25 3.03125 -29.410156 3.03125 -18.285156 C 3.03125 -7.15625 10.8125 0.679688 21.941406 0.679688 Z M 7.730469 -18.285156 C 7.730469 -26.800781 13.53125 -32.652344 21.941406 -32.652344 C 30.351562 -32.652344 36.152344 -26.800781 36.152344 -18.285156 C 36.152344 -9.769531 30.351562 -3.917969 21.941406 -3.917969 C 13.53125 -3.917969 7.730469 -9.769531 7.730469 -18.285156 Z M 7.730469 -18.285156 "/></g></g></g><g fill="#ffffff" fill-opacity="1"><g transform="translate(149.532756, 85.378433)"><g><path d="M 5.328125 0 L 17.972656 0 C 29.203125 0 36.726562 -7.46875 36.726562 -18.285156 C 36.726562 -29.097656 29.203125 -36.570312 17.972656 -36.570312 L 5.328125 -36.570312 Z M 9.925781 -4.386719 L 9.925781 -32.179688 L 17.761719 -32.179688 C 26.277344 -32.179688 32.023438 -26.589844 32.023438 -18.285156 C 32.023438 -9.976562 26.328125 -4.386719 17.972656 -4.386719 Z M 9.925781 -4.386719 "/></g></g></g><g fill="#000000" fill-opacity="1"><g transform="translate(212.025555, 82.985601)"><g><path d="M 16.976562 0.785156 C 26.066406 0.785156 31.449219 -3.5 31.449219 -10.710938 C 31.449219 -16.769531 27.53125 -20.320312 18.648438 -22.304688 C 13.949219 -23.351562 12.222656 -24.5 12.222656 -26.382812 C 12.222656 -28.15625 13.792969 -29.253906 16.246094 -29.253906 C 19.171875 -29.253906 20.84375 -27.738281 20.84375 -24.96875 L 30.769531 -24.96875 C 30.769531 -32.492188 25.023438 -37.351562 16.039062 -37.351562 C 7.417969 -37.351562 2.089844 -33.066406 2.089844 -26.171875 C 2.089844 -20.007812 6.113281 -16.195312 14.367188 -14.628906 C 18.804688 -13.738281 20.949219 -12.378906 20.949219 -10.292969 C 20.949219 -8.460938 19.382812 -7.417969 16.820312 -7.417969 C 13.792969 -7.417969 12.015625 -9.039062 12.015625 -11.859375 L 1.828125 -11.859375 C 1.828125 -3.96875 7.46875 0.785156 16.976562 0.785156 Z M 16.976562 0.785156 "/></g></g></g><g fill="#000000" fill-opacity="1"><g transform="translate(245.40481, 82.985601)"><g><path d="M 3.867188 0 L 14.3125 0 L 14.3125 -18.648438 L 28.210938 0 L 36.777344 0 L 36.777344 -36.566406 L 26.382812 -36.566406 L 26.382812 -18.023438 L 12.484375 -36.566406 L 3.867188 -36.566406 Z M 3.867188 0 "/></g></g></g><g fill="#000000" fill-opacity="1"><g transform="translate(286.097196, 82.985601)"><g><path d="M 0.261719 0 L 11.441406 0 L 13.425781 -5.171875 L 25.910156 -5.171875 L 27.894531 0 L 39.128906 0 L 24.917969 -36.566406 L 14.46875 -36.566406 Z M 15.621094 -12.902344 L 19.695312 -24.238281 L 23.769531 -12.902344 Z M 15.621094 -12.902344 "/></g></g></g><g fill="#000000" fill-opacity="1"><g transform="translate(325.483658, 82.985601)"><g><path d="M 3.867188 0 L 14.417969 0 L 14.417969 -9.039062 L 19.277344 -9.039062 C 28.574219 -9.039062 34.476562 -14.417969 34.476562 -22.828125 C 34.476562 -31.238281 28.574219 -36.566406 19.277344 -36.566406 L 3.867188 -36.566406 Z M 14.3125 -17.867188 L 14.3125 -27.6875 L 18.285156 -27.6875 C 21.785156 -27.6875 23.820312 -25.804688 23.820312 -22.777344 C 23.820312 -19.695312 21.785156 -17.867188 18.285156 -17.867188 Z M 14.3125 -17.867188 "/></g></g></g></svg>